<svg width="24" height="24" viewBox="0 0 24 24" fill="none" xmlns="http://www.w3.org/2000/svg">
<path d="M11.7402 23.5352C10.1686 23.5352 8.68315 23.2333 7.28398 22.6295C5.88482 22.0258 4.66294 21.2016 3.61836 20.157C2.57378 19.1124 1.74961 17.8906 1.14586 16.4914C0.542109 15.0922 0.240234 13.6068 0.240234 12.0352C0.240234 10.4443 0.542109 8.95411 1.14586 7.56453C1.74961 6.17495 2.57378 4.95786 3.61836 3.91328C4.66294 2.8687 5.88482 2.04453 7.28398 1.44078C8.68315 0.837031 10.1686 0.535156 11.7402 0.535156C13.3311 0.535156 14.8213 0.837031 16.2109 1.44078C17.6004 2.04453 18.8175 2.8687 19.8621 3.91328C20.9067 4.95786 21.7309 6.17495 22.3346 7.56453C22.9384 8.95411 23.2402 10.4443 23.2402 12.0352C23.2402 13.6068 22.9384 15.0922 22.3346 16.4914C21.7309 17.8906 20.9067 19.1124 19.8621 20.157C18.8175 21.2016 17.6004 22.0258 16.2109 22.6295C14.8213 23.2333 13.3311 23.5352 11.7402 23.5352ZM11.7402 21.1777C12.2386 20.4877 12.6698 19.7689 13.034 19.0214C13.3982 18.2739 13.6952 17.4785 13.9252 16.6352H9.55523C9.78523 17.4785 10.0823 18.2739 10.4465 19.0214C10.8107 19.7689 11.2419 20.4877 11.7402 21.1777ZM8.75023 20.7177C8.40523 20.0852 8.10336 19.4287 7.84461 18.7483C7.58586 18.0679 7.37023 17.3635 7.19773 16.6352H3.80523C4.36107 17.5935 5.05586 18.4272 5.88961 19.1364C6.72336 19.8456 7.6769 20.3727 8.75023 20.7177ZM14.7302 20.7177C15.8036 20.3727 16.7571 19.8456 17.5909 19.1364C18.4246 18.4272 19.1194 17.5935 19.6752 16.6352H16.2827C16.1102 17.3635 15.8946 18.0679 15.6359 18.7483C15.3771 19.4287 15.0752 20.0852 14.7302 20.7177ZM2.82773 14.3352H6.73773C6.68023 13.9518 6.63711 13.5733 6.60836 13.1995C6.57961 12.8258 6.56523 12.4377 6.56523 12.0352C6.56523 11.6327 6.57961 11.2445 6.60836 10.8708C6.63711 10.497 6.68023 10.1185 6.73773 9.73516H2.82773C2.7319 10.1185 2.66003 10.497 2.61211 10.8708C2.56419 11.2445 2.54023 11.6327 2.54023 12.0352C2.54023 12.4377 2.56419 12.8258 2.61211 13.1995C2.66003 13.5733 2.7319 13.9518 2.82773 14.3352ZM9.03773 14.3352H14.4427C14.5002 13.9518 14.5434 13.5733 14.5721 13.1995C14.6009 12.8258 14.6152 12.4377 14.6152 12.0352C14.6152 11.6327 14.6009 11.2445 14.5721 10.8708C14.5434 10.497 14.5002 10.1185 14.4427 9.73516H9.03773C8.98023 10.1185 8.93711 10.497 8.90836 10.8708C8.87961 11.2445 8.86523 11.6327 8.86523 12.0352C8.86523 12.4377 8.87961 12.8258 8.90836 13.1995C8.93711 13.5733 8.98023 13.9518 9.03773 14.3352ZM16.7427 14.3352H20.6527C20.7486 13.9518 20.8204 13.5733 20.8684 13.1995C20.9163 12.8258 20.9402 12.4377 20.9402 12.0352C20.9402 11.6327 20.9163 11.2445 20.8684 10.8708C20.8204 10.497 20.7486 10.1185 20.6527 9.73516H16.7427C16.8002 10.1185 16.8434 10.497 16.8721 10.8708C16.9009 11.2445 16.9152 11.6327 16.9152 12.0352C16.9152 12.4377 16.9009 12.8258 16.8721 13.1995C16.8434 13.5733 16.8002 13.9518 16.7427 14.3352ZM16.2827 7.43516H19.6752C19.1194 6.47682 18.4246 5.64307 17.5909 4.93391C16.7571 4.22474 15.8036 3.69766 14.7302 3.35266C15.0752 3.98516 15.3771 4.64161 15.6359 5.32203C15.8946 6.00245 16.1102 6.70682 16.2827 7.43516ZM9.55523 7.43516H13.9252C13.6952 6.59182 13.3982 5.79641 13.034 5.04891C12.6698 4.30141 12.2386 3.58266 11.7402 2.89266C11.2419 3.58266 10.8107 4.30141 10.4465 5.04891C10.0823 5.79641 9.78523 6.59182 9.55523 7.43516ZM3.80523 7.43516H7.19773C7.37023 6.70682 7.58586 6.00245 7.84461 5.32203C8.10336 4.64161 8.40523 3.98516 8.75023 3.35266C7.6769 3.69766 6.72336 4.22474 5.88961 4.93391C5.05586 5.64307 4.36107 6.47682 3.80523 7.43516Z" fill="#979797"/>
</svg>
