<svg width="24" height="26" viewBox="0 0 24 26" fill="none" xmlns="http://www.w3.org/2000/svg">
<path fill-rule="evenodd" clip-rule="evenodd" d="M0.5 12.9998C0.5 6.35992 5.64869 0.977192 11.9999 0.977192C12.8449 0.972754 13.6874 1.07284 14.5098 1.27537C11.2548 2.24972 9.12439 5.50878 9.43867 9.03326C9.75294 12.5577 12.4228 15.349 15.7941 15.6775C19.1653 16.0061 22.2827 13.7789 23.2146 10.3759C23.4084 11.2357 23.5041 12.1165 23.4999 12.9998C23.4999 19.6398 18.3512 25.0225 11.9999 25.0225C5.64869 25.0225 0.5 19.6398 0.5 12.9998ZM10.2464 14.8321C7.26304 11.7161 6.82993 6.81878 9.21622 3.18373C4.72478 4.57833 1.80843 9.10476 2.26009 13.9803C2.71174 18.8558 6.40473 22.713 11.0687 23.1806C15.7326 23.6482 20.0595 20.5951 21.3893 15.8982C17.9145 18.3963 13.2297 17.9481 10.2464 14.8321Z" fill="#979797"/>
<path d="M10.2464 14.8321C7.26304 11.7161 6.82993 6.81878 9.21622 3.18373C4.72478 4.57833 1.80843 9.10476 2.26009 13.9803C2.71174 18.8558 6.40473 22.713 11.0687 23.1806C15.7326 23.6482 20.0595 20.5951 21.3893 15.8982C17.9145 18.3963 13.2297 17.9481 10.2464 14.8321Z" fill="#979797"/>
</svg>
