<svg width="23" height="23" viewBox="0 0 23 23" fill="none" xmlns="http://www.w3.org/2000/svg">
<path d="M20.2931 12.626C20.3424 12.2667 20.367 11.8953 20.367 11.5C20.367 11.1167 20.3424 10.7333 20.2808 10.374L22.7808 8.48125C23.0025 8.31354 23.064 7.9901 22.9286 7.75052L20.564 3.77344C20.4163 3.5099 20.1084 3.42604 19.8374 3.5099L16.8941 4.6599C16.2783 4.20469 15.6256 3.82135 14.899 3.53385L14.4557 0.491146C14.4064 0.203646 14.1601 0 13.8645 0H9.13547C8.8399 0 8.60591 0.203646 8.55665 0.491146L8.1133 3.53385C7.3867 3.82135 6.72168 4.21667 6.11823 4.6599L3.17488 3.5099C2.90394 3.41406 2.59606 3.5099 2.44828 3.77344L0.0960595 7.75052C-0.0517237 8.00208 -0.00246277 8.31354 0.243843 8.48125L2.74384 10.374C2.68227 10.7333 2.63301 11.1286 2.63301 11.5C2.63301 11.8714 2.65764 12.2667 2.71921 12.626L0.219212 14.5188C-0.00246275 14.6865 -0.064039 15.0099 0.071429 15.2495L2.43596 19.2266C2.58374 19.4901 2.89163 19.574 3.16256 19.4901L6.10591 18.3401C6.72167 18.7953 7.37438 19.1786 8.10099 19.4661L8.54434 22.5089C8.60591 22.7964 8.8399 23 9.13547 23H13.8645C14.1601 23 14.4064 22.7964 14.4434 22.5089L14.8867 19.4661C15.6133 19.1786 16.2783 18.7953 16.8818 18.3401L19.8251 19.4901C20.0961 19.5859 20.4039 19.4901 20.5517 19.2266L22.9163 15.2495C23.064 14.9859 23.0025 14.6865 22.7685 14.5188L20.2931 12.626ZM11.5 15.8125C9.06158 15.8125 7.0665 13.8719 7.0665 11.5C7.0665 9.12813 9.06158 7.1875 11.5 7.1875C13.9384 7.1875 15.9335 9.12813 15.9335 11.5C15.9335 13.8719 13.9384 15.8125 11.5 15.8125Z" fill="#979797"/>
</svg>
