<svg width="32" height="34" viewBox="0 0 32 34" fill="none" xmlns="http://www.w3.org/2000/svg">
<rect y="0.5" width="32" height="33" rx="4" fill="#377EF6"/>
<path d="M16.0007 16.9998C15.084 16.9998 14.334 16.2498 14.334 15.3332C14.334 14.4165 15.084 13.6665 16.0007 13.6665C16.9173 13.6665 17.6673 14.4165 17.6673 15.3332C17.6673 16.2498 16.9173 16.9998 16.0007 16.9998ZM21.0007 15.4998C21.0007 12.4748 18.7923 10.3332 16.0007 10.3332C13.209 10.3332 11.0007 12.4748 11.0007 15.4998C11.0007 17.4498 12.6257 20.0332 16.0007 23.1165C19.3757 20.0332 21.0007 17.4498 21.0007 15.4998ZM16.0007 8.6665C19.5006 8.6665 22.6673 11.3498 22.6673 15.4998C22.6673 18.2665 20.4423 21.5415 16.0007 25.3332C11.559 21.5415 9.33398 18.2665 9.33398 15.4998C9.33398 11.3498 12.5007 8.6665 16.0007 8.6665Z" fill="white"/>
</svg>
