<svg width="32" height="34" viewBox="0 0 32 34" fill="none" xmlns="http://www.w3.org/2000/svg">
<rect y="0.5" width="32" height="33" rx="4" fill="#377EF6"/>
<path fill-rule="evenodd" clip-rule="evenodd" d="M21.4562 20.1359C19.9234 19.8673 18.3947 18.7416 17.4736 17.0223C16.3847 14.9896 16.4628 12.7204 17.5142 11.2794C17.622 11.1318 17.74 10.9928 17.868 10.8636C18.1149 10.6145 18.0435 10.1498 17.6963 10.0931C17.4699 10.0561 17.2399 10.0298 17.0067 10.0148C16.854 10.005 16.7 10 16.5447 10C12.654 10 9.5 13.134 9.5 17C9.5 20.866 12.654 24 16.5447 24C18.7587 24 20.7342 22.9852 22.0256 21.3981C22.1724 21.2178 22.3103 21.0301 22.4387 20.8356C22.6217 20.5585 22.3679 20.2066 22.0345 20.1961C21.8425 20.19 21.6493 20.1697 21.4562 20.1359Z" stroke="white" stroke-width="1.5"/>
</svg>
