<svg width="74" height="60" viewBox="0 0 74 60" fill="none" xmlns="http://www.w3.org/2000/svg">
<path fill-rule="evenodd" clip-rule="evenodd" d="M22.1119 6.6275C14.0217 10.2485 7.06589 13.5504 6.65454 13.9657C5.90696 14.7204 0 29.8234 0 30.9798C0 31.3162 2.51051 34.2532 5.57892 37.5048L11.1578 43.4169L11.1608 47.7829C11.1638 53.3384 13.0212 56.593 17.3103 58.5582C20.1139 59.8431 22.277 60 37.1928 60C52.1086 60 54.2717 59.8431 57.0753 58.5582C61.3294 56.6087 63.2211 53.3301 63.2248 47.9001C63.2278 43.7271 63.3274 43.5288 68.8268 36.729C73.2326 31.281 74.3194 29.4659 73.9252 28.2111C72.6718 24.2236 68.2369 14.2496 67.4492 13.6481C66.6056 13.003 37.4167 -0.0866765 37.0173 0.000432828C36.9094 0.024463 30.202 3.00646 22.1119 6.6275ZM50.9571 10.6803L64.8925 16.8974L67.3487 22.8787L69.8049 28.8592L67.136 32.2429C65.6676 34.1045 63.4524 36.7253 62.2132 38.068L59.9608 40.5085H37.2129H14.465L9.47747 35.4344L4.48992 30.3603L7.00712 23.6071L9.52359 16.8538L23.1726 10.7216C30.6789 7.34916 36.8663 4.56091 36.9213 4.52636C36.9771 4.49182 43.2932 7.2613 50.9571 10.6803ZM31.4532 14.3127C30.9965 14.7737 29.842 15.5427 28.8869 16.0218C27.3479 16.7938 27.1262 17.4989 26.9343 22.2231C26.7379 27.0584 26.9008 27.7733 28.6861 29.9157C29.7691 31.2149 32.1033 33.1343 33.873 34.1818L37.0916 36.0855L39.9317 34.6114C41.4938 33.8004 43.7759 32.0702 45.0033 30.7673C47.0846 28.5573 47.2349 28.0098 47.2349 22.6429C47.2349 17.1069 47.1568 16.8501 45.1893 15.8911C44.0638 15.3429 43.1437 14.5747 43.1437 14.1842C43.1437 13.1795 32.4597 13.2966 31.4532 14.3127ZM41.5124 18.7229C42.9361 19.9214 43.189 20.7663 43.0001 23.6904C42.803 26.728 42.3872 27.5262 39.9823 29.4862L37.1928 31.7601L34.4033 29.4862C31.9985 27.5262 31.5826 26.728 31.3855 23.6904C31.1966 20.7663 31.4495 19.9214 32.8732 18.7229C35.0922 16.8561 39.2935 16.8561 41.5124 18.7229ZM59.327 48.1614C59.0391 51.1869 58.5087 52.4478 56.9593 53.7935C54.994 55.5004 54.6824 55.5274 37.1928 55.5274C19.7033 55.5274 19.3916 55.5004 17.4263 53.7935C15.8769 52.4478 15.3465 51.1869 15.0586 48.1614L14.6882 44.2632H37.1928H59.6974L59.327 48.1614Z" fill="black"/>
<path fill-rule="evenodd" clip-rule="evenodd" d="M50.9571 10.6803L64.8925 16.8974L67.3487 22.8787L69.8049 28.8592L67.136 32.2429C65.6676 34.1045 63.4524 36.7253 62.2132 38.068L59.9608 40.5085H37.2129H14.465L9.47747 35.4344L4.48992 30.3603L7.00712 23.6071L9.52359 16.8538L23.1726 10.7216C30.6789 7.34916 36.8663 4.56091 36.9213 4.52636C36.9771 4.49182 43.2932 7.2613 50.9571 10.6803ZM28.8869 16.0218C29.842 15.5427 30.9965 14.7737 31.4532 14.3127C32.4597 13.2966 43.1437 13.1795 43.1437 14.1842C43.1437 14.5747 44.0638 15.3429 45.1893 15.8911C47.1568 16.8501 47.2349 17.1069 47.2349 22.6429C47.2349 28.0098 47.0846 28.5573 45.0033 30.7673C43.7759 32.0702 41.4938 33.8004 39.9317 34.6114L37.0916 36.0855L33.873 34.1818C32.1033 33.1343 29.7691 31.2149 28.6861 29.9157C26.9008 27.7733 26.7379 27.0584 26.9343 22.2231C27.1262 17.4989 27.3479 16.7938 28.8869 16.0218Z" fill="#293986"/>
<path d="M41.5124 18.7229C42.9361 19.9214 43.189 20.7663 43.0001 23.6904C42.803 26.728 42.3872 27.5262 39.9823 29.4862L37.1928 31.7601L34.4033 29.4862C31.9985 27.5262 31.5826 26.728 31.3855 23.6904C31.1966 20.7663 31.4495 19.9214 32.8732 18.7229C35.0922 16.8561 39.2935 16.8561 41.5124 18.7229Z" fill="#FFC801"/>
<path d="M59.327 48.1614C59.0391 51.1869 58.5087 52.4478 56.9593 53.7935C54.994 55.5004 54.6824 55.5274 37.1928 55.5274C19.7033 55.5274 19.3916 55.5004 17.4263 53.7935C15.8769 52.4478 15.3465 51.1869 15.0586 48.1614L14.6882 44.2632H37.1928H59.6974L59.327 48.1614Z" fill="#293986"/>
</svg>
