<svg width="78" height="60" viewBox="0 0 78 60" fill="none" xmlns="http://www.w3.org/2000/svg">
<path fill-rule="evenodd" clip-rule="evenodd" d="M20.888 10.8489C21.5044 10.2423 22.4548 10.112 23.2162 10.5296L34.8032 16.8849L12.4165 39.6162L5.65046 27.8323C5.21956 27.0818 5.34997 26.1407 5.96931 25.5312L20.888 10.8489ZM24.6929 7.92194L37.1396 14.7488C37.8137 14.3633 38.5852 14.1549 39.3791 14.1549H40.3108C41.5068 14.1549 42.6628 14.5782 43.568 15.3476L51.4557 22.0517C52.0872 22.5884 52.5716 23.2726 52.8646 24.0414L53.0575 24.5477C53.6454 26.0908 53.4012 27.7998 52.4529 29.1118C52.5558 29.1754 52.6535 29.2507 52.7439 29.3377L54.735 31.2525C55.4197 31.911 55.4323 32.991 54.7632 33.6648C54.0942 34.3386 52.9967 34.3511 52.3121 33.6926L50.321 31.7777C50.2289 31.6891 50.1489 31.5929 50.0811 31.491L26.0717 54.435C26.2737 54.5159 26.4635 54.6359 26.6292 54.7952L27.6067 55.7353H75.8333C77.03 55.7353 78 56.69 78 57.8677C78 59.0453 77.03 60 75.8333 60H2.16667C0.97005 60 0 59.0453 0 57.8677C0 56.69 0.97005 55.7353 2.16667 55.7353H16.4251L10.8789 50.5803C9.88209 49.6538 9.31721 48.3641 9.31721 47.0148V44.7499C9.31721 43.7224 9.64484 42.7275 10.2442 41.901L3.00959 29.3009C1.90841 27.3831 2.24166 24.9779 3.82442 23.4203L18.7431 8.738C20.3182 7.18792 22.7472 6.85476 24.6929 7.92194ZM38.3563 17.5664C38.6246 17.294 38.9936 17.1402 39.3791 17.1402H40.3108C40.7788 17.1402 41.2311 17.3058 41.5853 17.6069L49.4731 24.311C49.7202 24.5211 49.9097 24.7888 50.0244 25.0896L50.2173 25.5959C50.4894 26.3101 50.3059 27.1151 49.7499 27.6465L22.4861 53.7004C22.1222 54.0481 21.6349 54.2427 21.1277 54.2427H20.0121C19.5142 54.2427 19.0352 54.0552 18.6732 53.7188L12.9616 48.41C12.5716 48.0474 12.3505 47.5428 12.3505 47.0148V44.7499C12.3505 44.2513 12.5477 43.7722 12.9003 43.4142L38.3563 17.5664ZM42.9 25.8828C42.9 27.0604 41.9299 28.0151 40.7333 28.0151C39.5367 28.0151 38.5667 27.0604 38.5667 25.8828C38.5667 24.7051 39.5367 23.7504 40.7333 23.7504C41.9299 23.7504 42.9 24.7051 42.9 25.8828ZM23.8333 45.5002C23.8333 46.6778 22.8633 47.6325 21.6667 47.6325C20.47 47.6325 19.5 46.6778 19.5 45.5002C19.5 44.3225 20.47 43.3678 21.6667 43.3678C22.8633 43.3678 23.8333 44.3225 23.8333 45.5002Z" fill="black"/>
<path d="M58.6311 13.3809L70.8481 5.75632L63.3754 18.1115C62.8194 19.0308 63.2772 20.2202 64.3126 20.5463L70.6882 22.5541L64.0535 24.9048L65.0809 27.7136L75.4344 24.0454C76.9531 23.5073 76.9143 21.3805 75.3771 20.8964L66.846 18.2098L76.3325 2.52514C77.2422 1.02097 75.4773 -0.667627 73.9752 0.269833L58.4402 9.96517L55.3406 1.15273C54.806 -0.367083 52.6089 -0.329514 52.1283 1.20766L48.8176 11.7969L51.7168 12.6748L53.8187 5.95194L56.129 12.5204C56.4857 13.5344 57.7103 13.9556 58.6311 13.3809Z" fill="#FFC801"/>
<path d="M20.888 10.8489C21.5044 10.2423 22.4548 10.112 23.2162 10.5296L34.8032 16.8849L12.4165 39.6162L5.65046 27.8323C5.21956 27.0818 5.34997 26.1407 5.96931 25.5312L20.888 10.8489Z" fill="#37B4EA"/>
<path fill-rule="evenodd" clip-rule="evenodd" d="M38.3563 17.5664C38.6246 17.294 38.9936 17.1402 39.3791 17.1402H40.3108C40.7788 17.1402 41.2311 17.3058 41.5853 17.6069L49.4731 24.311C49.7202 24.5211 49.9097 24.7888 50.0244 25.0896L50.2173 25.5959C50.4894 26.3101 50.3059 27.1151 49.7499 27.6465L22.4861 53.7004C22.1222 54.0481 21.6349 54.2427 21.1277 54.2427H20.0121C19.5142 54.2427 19.0352 54.0552 18.6732 53.7188L12.9616 48.41C12.5716 48.0474 12.3505 47.5428 12.3505 47.0148V44.7499C12.3505 44.2513 12.5477 43.7722 12.9003 43.4142L38.3563 17.5664ZM40.7333 28.0151C41.9299 28.0151 42.9 27.0604 42.9 25.8828C42.9 24.7051 41.9299 23.7504 40.7333 23.7504C39.5367 23.7504 38.5667 24.7051 38.5667 25.8828C38.5667 27.0604 39.5367 28.0151 40.7333 28.0151ZM21.6667 47.6325C22.8633 47.6325 23.8333 46.6778 23.8333 45.5002C23.8333 44.3225 22.8633 43.3678 21.6667 43.3678C20.47 43.3678 19.5 44.3225 19.5 45.5002C19.5 46.6778 20.47 47.6325 21.6667 47.6325Z" fill="#BE5CE3"/>
</svg>
