<svg width="60" height="60" viewBox="0 0 60 60" fill="none" xmlns="http://www.w3.org/2000/svg">
<path d="M37.6744 17C37.6744 16.4477 38.143 16 38.7209 16H44.3023C44.8803 16 45.3488 16.4477 45.3488 17C45.3488 17.5523 44.8803 18 44.3023 18H38.7209C38.143 18 37.6744 17.5523 37.6744 17Z" fill="#0F0049"/>
<path d="M40.1163 20.6667C39.5383 20.6667 39.0698 21.1144 39.0698 21.6667C39.0698 22.219 39.5383 22.6667 40.1163 22.6667H44.3023C44.8803 22.6667 45.3488 22.219 45.3488 21.6667C45.3488 21.1144 44.8803 20.6667 44.3023 20.6667H40.1163Z" fill="#0F0049"/>
<path d="M52.6744 22.6667C54.4083 22.6667 55.814 21.3235 55.814 19.6667C55.814 18.0098 54.4083 16.6667 52.6744 16.6667C50.9405 16.6667 49.5349 18.0098 49.5349 19.6667C49.5349 21.3235 50.9405 22.6667 52.6744 22.6667Z" fill="#0F0049"/>
<path d="M4.18605 37.3333H13.9535V38C13.9535 39.4728 12.7041 40.6667 11.1628 40.6667H6.97674C5.43548 40.6667 4.18605 39.4728 4.18605 38V37.3333Z" fill="#0F0049"/>
<path d="M29.3023 45C29.3023 44.4477 29.7709 44 30.3488 44H41.5116C42.0896 44 42.5581 44.4477 42.5581 45C42.5581 45.5523 42.0896 46 41.5116 46H30.3488C29.7709 46 29.3023 45.5523 29.3023 45Z" fill="#0F0049"/>
<path d="M30.3488 48.6667C29.7709 48.6667 29.3023 49.1144 29.3023 49.6667C29.3023 50.219 29.7709 50.6667 30.3488 50.6667H41.5116C42.0896 50.6667 42.5581 50.219 42.5581 49.6667C42.5581 49.1144 42.0896 48.6667 41.5116 48.6667H30.3488Z" fill="#0F0049"/>
<path d="M53.0233 47.6667C53.0233 49.3235 51.6176 50.6667 49.8837 50.6667C48.1498 50.6667 46.7442 49.3235 46.7442 47.6667C46.7442 46.0098 48.1498 44.6667 49.8837 44.6667C51.6176 44.6667 53.0233 46.0098 53.0233 47.6667Z" fill="#0F0049"/>
<path d="M21.9767 50.6667C23.7107 50.6667 25.1163 49.3235 25.1163 47.6667C25.1163 46.0098 23.7107 44.6667 21.9767 44.6667C20.2428 44.6667 18.8372 46.0098 18.8372 47.6667C18.8372 49.3235 20.2428 50.6667 21.9767 50.6667Z" fill="#0F0049"/>
<path fill-rule="evenodd" clip-rule="evenodd" d="M36.2791 43.3333H32.093C30.9868 43.3333 30.0309 42.7183 29.5794 41.8265H19.7271L19.6152 41.7891C19.2071 41.6526 18.7034 41.714 18.1231 41.9682C17.5487 42.2197 16.9835 42.625 16.5211 43.0343C16.2158 43.3045 16.0465 43.7232 16.0465 44.2062V51.5708C16.0465 52.3386 16.3517 52.747 16.6776 52.9823C17.0369 53.2419 17.4854 53.3333 17.7702 53.3333H53.0526C54.0373 53.3333 54.7865 53.1362 55.2939 52.9213C55.5932 52.7945 55.814 52.442 55.814 51.8922V44.6301C55.814 43.3871 55.1863 42.7008 54.3743 42.2981C53.5142 41.8716 52.4432 41.7729 51.7211 41.8246L51.6951 41.8265H38.7927C38.3412 42.7183 37.3853 43.3333 36.2791 43.3333ZM29.3023 45C29.3023 44.4477 29.7709 44 30.3488 44H41.5116C42.0896 44 42.5581 44.4477 42.5581 45C42.5581 45.5523 42.0896 46 41.5116 46H30.3488C29.7709 46 29.3023 45.5523 29.3023 45ZM30.3488 48.6667C29.7709 48.6667 29.3023 49.1144 29.3023 49.6667C29.3023 50.219 29.7709 50.6667 30.3488 50.6667H41.5116C42.0896 50.6667 42.5581 50.219 42.5581 49.6667C42.5581 49.1144 42.0896 48.6667 41.5116 48.6667H30.3488ZM53.0233 47.6667C53.0233 49.3235 51.6176 50.6667 49.8837 50.6667C48.1498 50.6667 46.7442 49.3235 46.7442 47.6667C46.7442 46.0098 48.1498 44.6667 49.8837 44.6667C51.6176 44.6667 53.0233 46.0098 53.0233 47.6667ZM21.9767 50.6667C23.7107 50.6667 25.1163 49.3235 25.1163 47.6667C25.1163 46.0098 23.7107 44.6667 21.9767 44.6667C20.2428 44.6667 18.8372 46.0098 18.8372 47.6667C18.8372 49.3235 20.2428 50.6667 21.9767 50.6667Z" fill="#FFAB34"/>
<path d="M42.5581 35.0934C42.5581 35.584 42.3617 36.1784 41.7866 36.5176C41.2055 36.8604 40.2913 37.2107 39.0698 37.3073V37.3333H21.6845L20.6767 39.8999C20.6019 40.0904 20.558 40.2905 20.5464 40.4931H29.3023V39.3333H39.0698V40.4931H50.9709C50.967 40.3009 50.9341 40.1101 50.8731 39.9267L48.1167 31.6305C47.3541 31.1997 46.8246 30.432 46.7526 29.5418C46.4698 29.4076 46.1528 29.3333 45.822 29.3333H42.5581V35.0934Z" fill="#37B4EA"/>
<path d="M31.3954 29.3333C31.3954 30.8061 30.1459 32 28.6047 32H24.4186C24.2075 32 24.0019 31.9776 23.8042 31.9352L21.6845 37.3333H39.0698V37.3073C40.2913 37.2107 41.2055 36.8604 41.7866 36.5176C42.3617 36.1784 42.5581 35.584 42.5581 35.0934V29.3333H31.3954Z" fill="#37B4EA"/>
<path d="M32.093 43.3333H36.2791C37.3853 43.3333 38.3412 42.7183 38.7927 41.8265H29.5794C30.0309 42.7183 30.9868 43.3333 32.093 43.3333Z" fill="#FFAB34"/>
<path d="M39.0698 39.3333H29.3023V40.4931H39.0698V39.3333Z" fill="#37B4EA"/>
<path d="M21.6279 26.6667V29.3333C21.6279 30.122 21.9862 30.8307 22.5558 31.319L23.0099 30.1623C23.5207 28.8616 24.8221 28 26.276 28H31.3954V26.6667H42.5157C42.445 26.1592 42.289 25.7167 42.0704 25.3333H20.5609C20.2761 25.3333 19.8276 25.2419 19.4683 24.9823C19.1424 24.747 18.8372 24.3386 18.8372 23.5708V23.1598H17.4419V23.5708C17.4419 24.7464 17.9438 25.5526 18.6268 26.046C19.2764 26.5152 20.0386 26.6667 20.5609 26.6667H21.6279Z" fill="#FFAB34"/>
<path d="M24.3163 30.6307C24.6228 29.8503 25.4036 29.3333 26.276 29.3333H31.3954V28H26.276C24.8221 28 23.5207 28.8616 23.0099 30.1623L22.5558 31.319C22.9041 31.6175 23.3314 31.8337 23.8042 31.9352L24.3163 30.6307Z" fill="#0F0049"/>
<path d="M42.5157 26.6667H31.3954V28H42.5581V27.2968C42.5581 27.0765 42.5435 26.8665 42.5157 26.6667Z" fill="#FFAB34"/>
<path d="M42.5157 26.6667C42.5435 26.8665 42.5581 27.0765 42.5581 27.2968V28H45.822C46.1392 28 46.4487 28.0409 46.7442 28.1183V26.6667H42.5157Z" fill="#0F0049"/>
<path d="M28.6047 32C30.1459 32 31.3954 30.8061 31.3954 29.3333H26.276C25.4036 29.3333 24.6228 29.8503 24.3163 30.6307L23.8042 31.9352C24.0019 31.9776 24.2075 32 24.4186 32H28.6047Z" fill="#37B4EA"/>
<path d="M48.1167 31.6305L47.8169 30.7281C47.6411 30.1988 47.2495 29.7777 46.7526 29.5418C46.8246 30.432 47.3541 31.1997 48.1167 31.6305Z" fill="#37B4EA"/>
<path d="M17.4419 16.2062C17.4419 15.4415 17.711 14.6336 18.3637 14.056C18.8903 13.59 19.5779 13.0865 20.3324 12.7561C20.8209 12.5421 21.3745 12.3853 21.9461 12.3845C21.955 12.2554 21.9717 12.127 21.9961 12H10.1746L5.93659 22.7931C5.90719 22.868 5.89212 22.9473 5.89212 23.0273V23.1598H17.4419V16.2062Z" fill="#37B4EA"/>
<path d="M27.907 19.6667C27.907 21.3235 26.5014 22.6667 24.7674 22.6667C23.0335 22.6667 21.6279 21.3235 21.6279 19.6667C21.6279 18.0098 23.0335 16.6667 24.7674 16.6667C26.5014 16.6667 27.907 18.0098 27.907 19.6667Z" fill="#37B4EA"/>
<path fill-rule="evenodd" clip-rule="evenodd" d="M22.5178 13.8265L22.4059 13.7891C21.9978 13.6526 21.4941 13.714 20.9138 13.9682C20.3394 14.2197 19.7742 14.625 19.3118 15.0343C19.0065 15.3045 18.8372 15.7232 18.8372 16.2062V23.1598H36.3201V22.992C36.3201 22.9235 36.3091 22.8555 36.2874 22.7902L33.3092 13.8265H22.5178ZM24.7674 22.6667C26.5014 22.6667 27.907 21.3235 27.907 19.6667C27.907 18.0098 26.5014 16.6667 24.7674 16.6667C23.0335 16.6667 21.6279 18.0098 21.6279 19.6667C21.6279 21.3235 23.0335 22.6667 24.7674 22.6667Z" fill="#37B4EA"/>
<path d="M18.3637 14.056C17.711 14.6336 17.4419 15.4415 17.4419 16.2062V23.1598H18.8372V16.2062C18.8372 15.7232 19.0065 15.3045 19.3118 15.0343C19.7742 14.625 20.3394 14.2197 20.9138 13.9682C21.4941 13.714 21.9978 13.6526 22.4059 13.7891L22.5178 13.8265H33.3092L32.9238 12.6667H23.0233L23.29 12H21.9961C21.9717 12.127 21.955 12.2554 21.9461 12.3845C21.3745 12.3853 20.8209 12.5421 20.3324 12.7561C19.5779 13.0865 18.8903 13.59 18.3637 14.056Z" fill="#37B4EA"/>
<path d="M23.3371 12.4932H32.8662L32.7023 12H23.4312C23.3783 12.16 23.3467 12.3257 23.3371 12.4932Z" fill="#37B4EA"/>
<path d="M32.8662 12.4932H23.3371C23.3467 12.3257 23.3783 12.16 23.4312 12H23.29L23.0233 12.6667H32.9238L32.8662 12.4932Z" fill="#37B4EA"/>
<path d="M7.32558 33.3333C9.0595 33.3333 10.4651 31.9902 10.4651 30.3333C10.4651 28.6765 9.0595 27.3333 7.32558 27.3333C5.59166 27.3333 4.18605 28.6765 4.18605 30.3333C4.18605 31.9902 5.59166 33.3333 7.32558 33.3333Z" fill="#0F0049"/>
<path d="M15 27.3333C14.422 27.3333 13.9535 27.781 13.9535 28.3333C13.9535 28.8856 14.422 29.3333 15 29.3333H17.093C17.671 29.3333 18.1395 28.8856 18.1395 28.3333C18.1395 27.781 17.671 27.3333 17.093 27.3333H15Z" fill="#0F0049"/>
<path d="M13.9535 32.3333C13.9535 31.7811 14.422 31.3333 15 31.3333H17.093C17.671 31.3333 18.1395 31.7811 18.1395 32.3333C18.1395 32.8856 17.671 33.3333 17.093 33.3333H15C14.422 33.3333 13.9535 32.8856 13.9535 32.3333Z" fill="#0F0049"/>
<path d="M29.0667 1.33333C28.1943 1.33333 27.4135 1.85031 27.107 2.63074L23.9516 10.6667H32.7023C33.3103 10.6667 33.8483 11.0428 34.0323 11.5965L34.3302 12.4932H53.7616C53.7577 12.3009 53.7248 12.1101 53.6638 11.9267L50.6076 2.72813C50.3317 1.89757 49.5247 1.33333 48.6127 1.33333H29.0667Z" fill="#37B4EA"/>
<path fill-rule="evenodd" clip-rule="evenodd" d="M54.9938 11.5232C55.0971 11.8343 55.1521 12.1581 55.157 12.4843C55.9665 12.5155 56.9411 12.6849 57.8077 13.1147C59.0134 13.7126 60 14.8193 60 16.6301V23.8922C60 24.712 59.6611 25.712 58.6501 26.1402C58.1012 26.3727 57.3853 26.5715 56.5116 26.6406V29.3333C56.5116 30.8061 55.2622 32 53.7209 32H49.7035L52.2031 39.5232C52.3064 39.8343 52.3614 40.1581 52.3663 40.4843C53.1758 40.5155 54.1504 40.6849 55.017 41.1147C56.2227 41.7126 57.2093 42.8193 57.2093 44.6301V51.8922C57.2093 52.712 56.8704 53.712 55.8594 54.1402C55.3105 54.3727 54.5946 54.5715 53.7209 54.6406V57.3333C53.7209 58.8061 52.4715 60 50.9302 60H46.7442C45.2029 60 43.9535 58.8061 43.9535 57.3333V54.6667H28.6047V57.3333C28.6047 58.8061 27.3552 60 25.814 60H21.6279C20.0866 60 18.8372 58.8061 18.8372 57.3333V54.6667H17.7702C17.2479 54.6667 16.4857 54.5152 15.8361 54.046C15.1531 53.5526 14.6512 52.7464 14.6512 51.5708V44.2062C14.6512 43.4415 14.9203 42.6336 15.573 42.056C16.0996 41.59 16.7872 41.0865 17.5417 40.7561C18.0302 40.5421 18.5838 40.3853 19.1554 40.3845C19.1777 40.0589 19.25 39.7378 19.3703 39.4315L20.1942 37.3333L22.5558 31.319C22.9041 31.6175 23.3314 31.8337 23.8042 31.9352L21.6845 37.3333L20.6767 39.8999C20.6019 40.0904 20.558 40.2905 20.5464 40.4931H29.3023H39.0698H50.9709C50.967 40.3009 50.9341 40.1101 50.8731 39.9267L48.1167 31.6305L47.8169 30.7281C47.6411 30.1988 47.2495 29.7777 46.7526 29.5418C46.4698 29.4076 46.1528 29.3333 45.822 29.3333H42.5581H31.3954V28H42.5581H45.822C46.1392 28 46.4487 28.0409 46.7442 28.1183V26.6667H42.5157C42.445 26.1592 42.289 25.7167 42.0704 25.3333H55.8433C56.828 25.3333 57.5772 25.1362 58.0846 24.9213C58.3839 24.7945 58.6047 24.442 58.6047 23.8922V16.6301C58.6047 15.3871 57.977 14.7008 57.165 14.2981C56.3049 13.8716 55.2339 13.7729 54.5118 13.8246L54.4858 13.8265H34.7732H33.3092L32.9238 12.6667L32.8662 12.4932H34.3302H53.7616C53.7577 12.3009 53.7248 12.1101 53.6638 11.9267L50.6076 2.72813C50.3317 1.89757 49.5247 1.33333 48.6127 1.33333H29.0667C28.1943 1.33333 27.4135 1.85031 27.107 2.63074L23.9516 10.6667H23.8235H22.4613L25.8006 2.16235C26.3114 0.861635 27.6128 0 29.0667 0H48.6127C50.1326 0 51.4776 0.940385 51.9376 2.32467L54.9938 11.5232ZM53.0526 53.3333C54.0373 53.3333 54.7865 53.1362 55.2939 52.9213C55.5932 52.7945 55.814 52.442 55.814 51.8922V44.6301C55.814 43.3871 55.1863 42.7008 54.3743 42.2981C53.5142 41.8716 52.4432 41.7729 51.7211 41.8246L51.6951 41.8265H38.7927H29.5794H19.7271L19.6152 41.7891C19.2071 41.6526 18.7034 41.714 18.1231 41.9682C17.5487 42.2197 16.9835 42.625 16.5211 43.0343C16.2158 43.3045 16.0465 43.7232 16.0465 44.2062V51.5708C16.0465 52.3386 16.3517 52.747 16.6776 52.9823C17.0369 53.2419 17.4854 53.3333 17.7702 53.3333H53.0526Z" fill="#0F0049"/>
<path fill-rule="evenodd" clip-rule="evenodd" d="M55.8433 25.3333C56.828 25.3333 57.5772 25.1362 58.0846 24.9213C58.3839 24.7945 58.6047 24.442 58.6047 23.8922V16.6301C58.6047 15.3871 57.977 14.7008 57.165 14.2981C56.3049 13.8716 55.2339 13.7729 54.5118 13.8246L54.4858 13.8265H34.7732L37.6173 22.3868C37.6824 22.5825 37.7155 22.7866 37.7155 22.992V23.151C38.5249 23.1822 39.4993 23.3516 40.3658 23.7813C41.0523 24.1217 41.6677 24.6271 42.0704 25.3333H55.8433ZM37.6744 17C37.6744 16.4477 38.143 16 38.7209 16H44.3023C44.8803 16 45.3488 16.4477 45.3488 17C45.3488 17.5523 44.8803 18 44.3023 18H38.7209C38.143 18 37.6744 17.5523 37.6744 17ZM40.1163 20.6667C39.5383 20.6667 39.0698 21.1144 39.0698 21.6667C39.0698 22.219 39.5383 22.6667 40.1163 22.6667H44.3023C44.8803 22.6667 45.3488 22.219 45.3488 21.6667C45.3488 21.1144 44.8803 20.6667 44.3023 20.6667H40.1163ZM55.814 19.6667C55.814 21.3235 54.4083 22.6667 52.6744 22.6667C50.9405 22.6667 49.5349 21.3235 49.5349 19.6667C49.5349 18.0098 50.9405 16.6667 52.6744 16.6667C54.4083 16.6667 55.814 18.0098 55.814 19.6667Z" fill="#FFAB34"/>
<path fill-rule="evenodd" clip-rule="evenodd" d="M21.6279 26.6667V29.3333C21.6279 30.122 21.9862 30.8307 22.5558 31.319L20.1942 37.3333H3.11902C2.59671 37.3333 1.83454 37.1819 1.18496 36.7126C0.501912 36.2192 0 35.413 0 34.2374V26.39C0 25.9295 0.164727 25.4533 0.531984 25.0881C1.03803 24.5849 1.77018 23.9804 2.59463 23.5626C3.15423 23.279 3.81344 23.0536 4.49678 23.0511L5.89212 23.1598H17.4419V23.5708C17.4419 24.7464 17.9438 25.5526 18.6268 26.046C19.2764 26.5152 20.0386 26.6667 20.5609 26.6667H21.6279ZM7.32558 33.3333C9.0595 33.3333 10.4651 31.9902 10.4651 30.3333C10.4651 28.6765 9.0595 27.3333 7.32558 27.3333C5.59166 27.3333 4.18605 28.6765 4.18605 30.3333C4.18605 31.9902 5.59166 33.3333 7.32558 33.3333ZM15 27.3333C14.422 27.3333 13.9535 27.781 13.9535 28.3333C13.9535 28.8856 14.422 29.3333 15 29.3333H17.093C17.671 29.3333 18.1395 28.8856 18.1395 28.3333C18.1395 27.781 17.671 27.3333 17.093 27.3333H15ZM13.9535 32.3333C13.9535 31.7811 14.422 31.3333 15 31.3333H17.093C17.671 31.3333 18.1395 31.7811 18.1395 32.3333C18.1395 32.8856 17.671 33.3333 17.093 33.3333H15C14.422 33.3333 13.9535 32.8856 13.9535 32.3333Z" fill="#FFAB34"/>
<path d="M10.1746 10.6667C9.59307 10.6667 9.0725 11.0113 8.8682 11.5316L4.63018 22.3247C4.54196 22.5494 4.49678 22.7873 4.49678 23.0273V23.0511L5.89212 23.1598V23.0273C5.89212 22.9473 5.90719 22.868 5.93659 22.7931L10.1746 12H21.9961C22.0333 11.8066 22.0884 11.6164 22.161 11.4315L22.4613 10.6667H10.1746Z" fill="#0F0049"/>
<path d="M34.0323 11.5965C33.8483 11.0428 33.3103 10.6667 32.7023 10.6667H23.9516L23.4674 11.8999C23.4544 11.933 23.4423 11.9664 23.4312 12H32.7023L32.8662 12.4932H34.3302L34.0323 11.5965Z" fill="#0F0049"/>
<path d="M22.161 11.4315C22.0884 11.6164 22.0333 11.8066 21.9961 12H23.29L23.8235 10.6667H22.4613L22.161 11.4315Z" fill="#0F0049"/>
<path d="M23.4674 11.8999L23.9516 10.6667H23.8235L23.29 12H23.4312C23.4423 11.9664 23.4544 11.933 23.4674 11.8999Z" fill="#0F0049"/>
<path fill-rule="evenodd" clip-rule="evenodd" d="M19.4683 24.9823C19.1424 24.747 18.8372 24.3386 18.8372 23.5708V23.1598H36.3201L37.7155 23.151C38.5249 23.1822 39.4993 23.3516 40.3658 23.7813C41.0523 24.1217 41.6677 24.6271 42.0704 25.3333H20.5609C20.2761 25.3333 19.8276 25.2419 19.4683 24.9823Z" fill="#FFAB34"/>
<path d="M37.7155 22.992C37.7155 22.7866 37.6824 22.5825 37.6173 22.3868L34.7732 13.8265H33.3092L36.2874 22.7902C36.3091 22.8555 36.3201 22.9235 36.3201 22.992V23.1598L37.7155 23.151V22.992Z" fill="#0F0049"/>
</svg>
