<svg width="44" height="62" viewBox="0 0 44 62" fill="none" xmlns="http://www.w3.org/2000/svg">
<path d="M17.1191 51.7766C17.1191 51.2302 17.5356 50.7872 18.0494 50.7872H21.0896H23.1073H26.1118C26.6256 50.7872 27.0421 51.2302 27.0421 51.7766C27.0421 52.323 26.6256 52.766 26.1118 52.766H18.0494C17.5356 52.766 17.1191 52.323 17.1191 51.7766Z" fill="black"/>
<path fill-rule="evenodd" clip-rule="evenodd" d="M22.0806 25.0638C26.1909 25.0638 29.5229 21.5202 29.5229 17.1489C29.5229 12.7777 26.1909 9.23404 22.0806 9.23404C17.9704 9.23404 14.6383 12.7777 14.6383 17.1489C14.6383 21.5202 17.9704 25.0638 22.0806 25.0638ZM22.0806 27.7021C27.5609 27.7021 32.0036 22.9773 32.0036 17.1489C32.0036 11.3206 27.5609 6.59574 22.0806 6.59574C16.6003 6.59574 12.1576 11.3206 12.1576 17.1489C12.1576 22.9773 16.6003 27.7021 22.0806 27.7021Z" fill="black"/>
<path d="M17.4122 13.702C17.0195 13.2813 17.0218 12.6016 17.4174 12.184C17.813 11.7663 18.452 11.7688 18.8447 12.1895L26.3845 20.2665C26.7772 20.6872 26.7749 21.3668 26.3793 21.7845C25.9837 22.2022 25.3446 22.1997 24.9519 21.779L17.4122 13.702Z" fill="black"/>
<path d="M26.3844 13.702C26.7771 13.2813 26.7748 12.6016 26.3792 12.184C25.9836 11.7663 25.3446 11.7688 24.9518 12.1895L17.4121 20.2665C17.0194 20.6872 17.0217 21.3668 17.4173 21.7845C17.8129 22.2022 18.452 22.1997 18.8447 21.779L26.3844 13.702Z" fill="black"/>
<path fill-rule="evenodd" clip-rule="evenodd" d="M30.8431 33.9154C34.1592 27.5703 36.345 21.5742 36.345 17.4787C36.345 9.32886 30.0025 2.6383 22.0806 2.6383C14.1587 2.6383 7.81626 9.32886 7.81626 17.4787C7.81626 19.4175 8.3918 21.9816 9.48212 24.9936C10.5578 27.9651 12.0663 31.1893 13.7729 34.3905C16.0582 38.6768 18.6518 42.8345 20.9285 46.1702H23.3423C25.8841 42.5587 28.5693 38.2661 30.8431 33.9154ZM22.0806 27.7021C27.5609 27.7021 32.0036 22.9773 32.0036 17.1489C32.0036 11.3206 27.5609 6.59574 22.0806 6.59574C16.6003 6.59574 12.1576 11.3206 12.1576 17.1489C12.1576 22.9773 16.6003 27.7021 22.0806 27.7021Z" fill="white"/>
<path d="M24.5746 48.8085C24.275 49.2233 23.9781 49.6279 23.6846 50.0215C23.4906 50.2817 23.2981 50.537 23.1073 50.7872H26.1118C26.6256 50.7872 27.0421 51.2302 27.0421 51.7766C27.0421 52.323 26.6256 52.766 26.1118 52.766H18.0494C17.5356 52.766 17.1191 52.323 17.1191 51.7766C17.1191 51.2302 17.5356 50.7872 18.0494 50.7872H21.0896C20.901 50.5307 20.708 50.2653 20.5111 49.9916C20.2386 49.6127 19.9587 49.2179 19.6726 48.8085H6.08809C5.82327 48.8085 5.58767 48.9873 5.50159 49.2537L2.51693 58.4877C2.37852 58.9159 2.67768 59.3617 3.10343 59.3617H40.8948C41.3625 59.3617 41.6619 58.832 41.4425 58.3927L36.8298 49.1586C36.7222 48.9432 36.5115 48.8085 36.2821 48.8085H24.5746Z" fill="#E84928"/>
<path fill-rule="evenodd" clip-rule="evenodd" d="M36.345 17.4787C36.345 21.5742 34.1592 27.5703 30.8431 33.9154C28.5693 38.2661 25.8841 42.5587 23.3423 46.1702H20.9285C18.6518 42.8345 16.0582 38.6768 13.7729 34.3905C12.0663 31.1893 10.5578 27.9651 9.48212 24.9936C8.3918 21.9816 7.81626 19.4175 7.81626 17.4787C7.81626 9.32886 14.1587 2.6383 22.0806 2.6383C30.0025 2.6383 36.345 9.32886 36.345 17.4787ZM17.8797 46.1702H20.9285C21.3355 46.7665 21.7323 47.3365 22.1154 47.8763C22.519 47.3274 22.9288 46.7578 23.3423 46.1702H26.4208C25.7995 47.0858 25.1817 47.9679 24.5746 48.8085H19.6726C19.0964 47.9841 18.4953 47.1008 17.8797 46.1702ZM17.8797 46.1702C12.2203 37.6149 5.3355 25.0596 5.3355 17.4787C5.3355 7.82549 12.8325 0 22.0806 0C31.3287 0 38.8257 7.82549 38.8257 17.4787C38.8257 25.2103 32.4602 37.2698 26.4208 46.1702H36.2821C37.4292 46.1702 38.4825 46.8436 39.0206 47.9209L43.6333 57.1549C44.7305 59.3515 43.2335 62 40.8948 62H3.10343C0.974656 62 -0.521117 59.7711 0.170908 57.6301L3.15557 48.396C3.586 47.0643 4.76401 46.1702 6.08809 46.1702H17.8797ZM19.6726 48.8085C19.9587 49.2179 20.2386 49.6127 20.5111 49.9916C20.708 50.2653 20.901 50.5307 21.0896 50.7872C21.4356 51.2578 21.7669 51.6986 22.0806 52.1064C22.4159 51.685 22.7586 51.2447 23.1073 50.7872C23.2981 50.537 23.4906 50.2817 23.6846 50.0215C23.9781 49.6279 24.275 49.2233 24.5746 48.8085H36.2821C36.5115 48.8085 36.7222 48.9432 36.8298 49.1586L41.4425 58.3927C41.6619 58.832 41.3625 59.3617 40.8948 59.3617H3.10343C2.67768 59.3617 2.37852 58.9159 2.51693 58.4877L5.50159 49.2537C5.58767 48.9873 5.82327 48.8085 6.08809 48.8085H19.6726Z" fill="black"/>
<path d="M23.3423 46.1702C22.9288 46.7578 22.519 47.3274 22.1154 47.8763C21.7323 47.3365 21.3355 46.7665 20.9285 46.1702H17.8797C18.4953 47.1008 19.0964 47.9841 19.6726 48.8085H24.5746C25.1817 47.9679 25.7995 47.0858 26.4208 46.1702H23.3423Z" fill="black"/>
</svg>
