<svg width="65" height="59" viewBox="0 0 65 59" fill="none" xmlns="http://www.w3.org/2000/svg">
<path d="M38.3077 4.08125C37.1156 1.95439 34.7929 0.632812 32.251 0.632812C29.7091 0.632812 27.3865 1.95439 26.1943 4.08449L1.05621 49.0992C0.498391 50.0877 0.222073 51.197 0.254513 52.3176C0.286954 53.4383 0.627031 54.5315 1.2412 55.4895C1.84653 56.4519 2.70619 57.248 3.73531 57.7993C4.76443 58.3505 5.92744 58.6378 7.1095 58.6328H57.3925C59.818 58.6328 62.0139 57.4573 63.2643 55.4895C63.8775 54.5312 64.217 53.438 64.2494 52.3176C64.2818 51.1972 64.0061 50.088 63.4492 49.0992L38.3077 4.08125ZM7.1095 52.1385L32.251 7.12379L57.4097 52.1385H7.1095Z" fill="#E84928"/>
<path d="M7.1095 52.1385L32.251 7.12379L57.4097 52.1385H7.1095Z" fill="white"/>
<path d="M30.2754 24.1353H35.7272V37.5136H30.2754V24.1353ZM30.2727 40.1893H35.7245V45.5407H30.2727V40.1893Z" fill="black"/>
</svg>
