<svg width="70" height="62" viewBox="0 0 70 62" fill="none" xmlns="http://www.w3.org/2000/svg">
<path d="M33.3415 25.2377C33.3415 27.692 31.2995 29.6815 28.7806 29.6815C26.2617 29.6815 24.2197 27.692 24.2197 25.2377C24.2197 22.7835 26.2617 20.7939 28.7806 20.7939C31.2995 20.7939 33.3415 22.7835 33.3415 25.2377Z" fill="black"/>
<path fill-rule="evenodd" clip-rule="evenodd" d="M36.0042 26.4751C32.8331 27.3857 32.1208 28.76 30.8546 36.4114C30.114 40.8859 30.1455 42.1261 31.0146 42.6731C31.887 43.2225 31.8571 43.5053 30.8604 44.129C30.1804 44.5548 29.3121 44.6001 28.9315 44.2292C28.5148 43.8233 26.9366 44.4467 25.0489 45.0328C22.9758 44.2292 18.2963 47.356 17.1395 48.6851C16.2108 49.7533 15.0108 50.6267 14.4743 50.6267C13.4601 50.6267 11.7809 53.112 11.7809 54.6132C11.7809 55.1836 15.8475 55.4744 23.8051 55.4744C30.4184 55.4744 35.8292 55.2749 35.8292 55.0301C35.8292 53.7349 33.2138 49.944 32.0097 49.4939C31.2435 49.2071 30.8529 48.7417 31.1423 48.4597C31.4317 48.1786 31.2874 47.4999 30.8206 46.9521C30.1978 46.2201 31.1075 45.076 34.2528 42.6359C36.6071 40.8091 38.8577 39.3152 39.2549 39.3152C40.556 39.3152 40.0112 40.6168 37.9024 42.5471C35.1119 45.101 35.2877 47.2163 38.7714 53.0069C43.5048 60.8765 46.2662 58.7354 41.9889 50.5119L39.8561 46.4107L41.7186 44.4789C42.7436 43.4164 43.8349 42.5471 44.1433 42.5471C44.4527 42.5471 45.0995 44.8199 45.5813 47.5968C46.7364 54.2609 47.9289 57.0904 49.5824 57.0904C50.692 57.0904 50.8387 56.5418 50.3926 54.0605C50.0932 52.3945 49.6413 48.0452 49.3892 44.3965C49.1015 40.2379 48.5052 37.4181 47.7912 36.8412C46.8301 36.064 46.8509 35.5485 47.9239 33.527C48.623 32.21 49.0791 29.9744 48.9389 28.558C48.6843 25.9968 48.6578 25.983 43.7072 25.8376C40.9706 25.7568 37.5043 26.0436 36.0042 26.4751ZM45.7679 29.4177C45.7604 29.7514 45.4163 30.5456 45.0016 31.1839C44.3797 32.1413 44.0214 32.1607 42.9501 31.2938C42.2361 30.7169 41.8571 29.9218 42.1067 29.5284C42.6573 28.6598 45.7853 28.5653 45.7679 29.4177ZM37.346 39.0777C36.8144 39.7014 35.6841 40.574 34.8341 41.0176C33.4551 41.7367 33.3431 41.5791 33.7984 39.5592C34.8234 35.0168 34.8988 34.9361 36.6726 36.5003C37.9563 37.6322 38.1022 38.1897 37.346 39.0777Z" fill="black"/>
<path fill-rule="evenodd" clip-rule="evenodd" d="M65.3015 51.9268L38.6062 6.08601C37.0174 3.35774 32.9826 3.35775 31.3938 6.086L4.69849 51.9268C3.13018 54.6198 5.12671 57.9602 8.30472 57.9602H61.6953C64.8733 57.9602 66.8698 54.6199 65.3015 51.9268ZM42.2124 4.09239C39.0348 -1.36412 30.9652 -1.36413 27.7876 4.09238L1.09227 49.9331C-2.04436 55.3193 1.94873 62 8.30472 62H61.6953C68.0513 62 72.0444 55.3193 68.9077 49.9332L42.2124 4.09239Z" fill="#E84928"/>
<path fill-rule="evenodd" clip-rule="evenodd" d="M38.6062 6.08601L65.3015 51.9268C66.8698 54.6199 64.8733 57.9602 61.6953 57.9602H8.30472C5.12671 57.9602 3.13018 54.6198 4.69849 51.9268L31.3938 6.086C32.9826 3.35775 37.0174 3.35774 38.6062 6.08601ZM28.7806 29.6815C31.2995 29.6815 33.3415 27.692 33.3415 25.2377C33.3415 22.7835 31.2995 20.7939 28.7806 20.7939C26.2617 20.7939 24.2197 22.7835 24.2197 25.2377C24.2197 27.692 26.2617 29.6815 28.7806 29.6815ZM30.8546 36.4114C32.1208 28.76 32.8331 27.3857 36.0042 26.4751C37.5043 26.0436 40.9706 25.7568 43.7072 25.8376C48.6578 25.983 48.6843 25.9968 48.9389 28.558C49.0791 29.9744 48.623 32.21 47.9239 33.527C46.8509 35.5485 46.8301 36.064 47.7912 36.8412C48.5052 37.4181 49.1015 40.2379 49.3892 44.3965C49.6413 48.0452 50.0932 52.3945 50.3926 54.0605C50.8387 56.5418 50.692 57.0904 49.5824 57.0904C47.9289 57.0904 46.7364 54.2609 45.5813 47.5968C45.0995 44.8199 44.4527 42.5471 44.1433 42.5471C43.8349 42.5471 42.7436 43.4164 41.7186 44.4789L39.8561 46.4107L41.9889 50.5119C46.2662 58.7354 43.5048 60.8765 38.7714 53.0069C35.2877 47.2163 35.1119 45.101 37.9024 42.5471C40.0112 40.6168 40.556 39.3152 39.2549 39.3152C38.8577 39.3152 36.6071 40.8091 34.2528 42.6359C31.1075 45.076 30.1978 46.2201 30.8206 46.9521C31.2874 47.4999 31.4317 48.1786 31.1423 48.4597C30.8529 48.7417 31.2435 49.2071 32.0097 49.4939C33.2138 49.944 35.8292 53.7349 35.8292 55.0301C35.8292 55.2749 30.4184 55.4744 23.8051 55.4744C15.8475 55.4744 11.7809 55.1836 11.7809 54.6132C11.7809 53.112 13.4601 50.6267 14.4743 50.6267C15.0108 50.6267 16.2108 49.7533 17.1395 48.6851C18.2963 47.356 22.9758 44.2292 25.0489 45.0328C26.9366 44.4467 28.5148 43.8233 28.9315 44.2292C29.3121 44.6001 30.1804 44.5548 30.8604 44.129C31.8571 43.5053 31.887 43.2225 31.0146 42.6731C30.1455 42.1261 30.114 40.8859 30.8546 36.4114Z" fill="white"/>
<path d="M37.346 39.0777C36.8144 39.7014 35.6841 40.574 34.8341 41.0176C33.4551 41.7367 33.3431 41.5791 33.7984 39.5592C34.8234 35.0168 34.8988 34.9361 36.6726 36.5003C37.9563 37.6322 38.1022 38.1897 37.346 39.0777Z" fill="white"/>
<path d="M45.7679 29.4177C45.7604 29.7514 45.4163 30.5456 45.0016 31.1839C44.3797 32.1413 44.0214 32.1607 42.9501 31.2938C42.2361 30.7169 41.8571 29.9218 42.1067 29.5284C42.6573 28.6598 45.7853 28.5653 45.7679 29.4177Z" fill="white"/>
</svg>
