<svg width="16" height="32" viewBox="0 0 16 32" fill="none" xmlns="http://www.w3.org/2000/svg">
<path d="M8.36196 10.6198L13.672 5.0468C13.7606 4.95381 13.8101 4.83027 13.8101 4.7018C13.8101 4.57333 13.7606 4.44979 13.672 4.3568L13.666 4.3508C13.623 4.30557 13.5713 4.26955 13.5139 4.24493C13.4566 4.22032 13.3949 4.20763 13.3325 4.20763C13.2701 4.20763 13.2083 4.22032 13.151 4.24493C13.0937 4.26955 13.0419 4.30557 12.999 4.3508L7.99896 9.5988L3.00096 4.3508C2.95799 4.30557 2.90626 4.26955 2.84893 4.24493C2.7916 4.22032 2.72986 4.20763 2.66746 4.20763C2.60507 4.20763 2.54333 4.22032 2.486 4.24493C2.42866 4.26955 2.37694 4.30557 2.33396 4.3508L2.32796 4.3568C2.23932 4.44979 2.18987 4.57333 2.18987 4.7018C2.18987 4.83027 2.23932 4.95381 2.32796 5.0468L7.63796 10.6198C7.68466 10.6688 7.74082 10.7078 7.80305 10.7345C7.86528 10.7612 7.93227 10.7749 7.99996 10.7749C8.06766 10.7749 8.13465 10.7612 8.19688 10.7345C8.2591 10.7078 8.31527 10.6688 8.36196 10.6198Z" fill="black"/>
<path d="M7.63804 21.3802L2.32804 26.9532C2.23939 27.0462 2.18994 27.1697 2.18994 27.2982C2.18994 27.4267 2.23939 27.5502 2.32804 27.6432L2.33404 27.6492C2.37701 27.6944 2.42874 27.7305 2.48607 27.7551C2.5434 27.7797 2.60514 27.7924 2.66754 27.7924C2.72993 27.7924 2.79167 27.7797 2.849 27.7551C2.90634 27.7305 2.95806 27.6944 3.00104 27.6492L8.00104 22.4012L12.999 27.6492C13.042 27.6944 13.0937 27.7305 13.1511 27.7551C13.2084 27.7797 13.2701 27.7924 13.3325 27.7924C13.3949 27.7924 13.4567 27.7797 13.514 27.7551C13.5713 27.7305 13.6231 27.6944 13.666 27.6492L13.672 27.6432C13.7607 27.5502 13.8101 27.4267 13.8101 27.2982C13.8101 27.1697 13.7607 27.0462 13.672 26.9532L8.36204 21.3802C8.31534 21.3312 8.25918 21.2922 8.19695 21.2655C8.13472 21.2388 8.06773 21.2251 8.00004 21.2251C7.93234 21.2251 7.86535 21.2388 7.80312 21.2655C7.7409 21.2922 7.68473 21.3312 7.63804 21.3802Z" fill="black"/>
</svg>
