<svg width="60" height="61" viewBox="0 0 60 61" fill="none" xmlns="http://www.w3.org/2000/svg">
<path d="M0 4.80824C0 2.62937 1.79086 0.863037 4 0.863037H56C58.2091 0.863037 60 2.62937 60 4.80824V56.0959C60 58.2748 58.2091 60.0411 56 60.0411H4C1.79086 60.0411 0 58.2748 0 56.0959V4.80824Z" fill="#FF3B2C"/>
<path fill-rule="evenodd" clip-rule="evenodd" d="M15.3871 19.3338C15.3871 17.5015 16.9036 16.0162 18.7742 16.0162H40.2258C42.0965 16.0162 43.6129 17.5015 43.6129 19.3338V45.8742C43.6129 47.7065 42.0965 49.1918 40.2258 49.1918H18.7742C16.9036 49.1918 15.3871 47.7065 15.3871 45.8742V19.3338ZM37.9677 29.8394C37.9677 34.42 34.1766 38.1333 29.5 38.1333C24.8234 38.1333 21.0323 34.42 21.0323 29.8394C21.0323 25.2588 24.8234 21.5455 29.5 21.5455C34.1766 21.5455 37.9677 25.2588 37.9677 29.8394ZM38.5323 45.8742C39.4676 45.8742 40.2258 45.1316 40.2258 44.2155C40.2258 43.2993 39.4676 42.5567 38.5323 42.5567C37.5969 42.5567 36.8387 43.2993 36.8387 44.2155C36.8387 45.1316 37.5969 45.8742 38.5323 45.8742Z" fill="white"/>
<path d="M15.5 12.6987C13.5671 12.6987 12 14.2019 12 16.0572V25.0134C12 27.0525 14.3333 26.0531 14.3333 24.0139V18.2962C14.3333 16.441 15.9005 14.9377 17.8333 14.9377H41.1667C43.0995 14.9377 44.6667 16.441 44.6667 18.2962V24.0139C44.6667 26.0531 47 27.0525 47 25.0134V16.0572C47 14.2019 45.4329 12.6987 43.5 12.6987H15.5Z" fill="white"/>
</svg>
