<svg width="36" height="41" viewBox="0 0 36 41" fill="none" xmlns="http://www.w3.org/2000/svg">
<path d="M22.6053 15.6745C22.6053 18.2288 20.5434 20.2994 18 20.2994C15.4566 20.2994 13.3947 18.2288 13.3947 15.6745C13.3947 13.1203 15.4566 11.0497 18 11.0497C20.5434 11.0497 22.6053 13.1203 22.6053 15.6745Z" fill="white"/>
<path fill-rule="evenodd" clip-rule="evenodd" d="M12.1775 2.36214C12.3497 1.49743 13.1058 0.875 13.9838 0.875H22.9372C23.8153 0.875 24.5713 1.49743 24.7435 2.36214L25.3684 5.49985H31.8158C33.8505 5.49985 35.5 7.15635 35.5 9.19974V22.1493C35.5 24.1927 33.8505 25.8492 31.8158 25.8492H24.2009C23.8824 26.4022 23.2871 26.7742 22.6053 26.7742H13.3947C12.7129 26.7742 12.1176 26.4022 11.7991 25.8492H4.18421C2.14948 25.8492 0.5 24.1927 0.5 22.1493V9.19974C0.5 7.15635 2.14948 5.49985 4.18421 5.49985H11.5526L12.1775 2.36214ZM7.86842 10.1247C7.86842 11.6573 6.63131 12.8996 5.10526 12.8996C3.57921 12.8996 2.34211 11.6573 2.34211 10.1247C2.34211 8.59217 3.57921 7.3498 5.10526 7.3498C6.63131 7.3498 7.86842 8.59217 7.86842 10.1247ZM24.4474 15.6745C24.4474 19.2505 21.5608 22.1493 18 22.1493C14.4392 22.1493 11.5526 19.2505 11.5526 15.6745C11.5526 12.0986 14.4392 9.19974 18 9.19974C21.5608 9.19974 24.4474 12.0986 24.4474 15.6745Z" fill="white"/>
<path d="M20.3028 32.8772C19.5398 31.55 19.9926 29.8529 21.3142 29.0866C22.6358 28.3203 24.3257 28.7751 25.0887 30.1023L28.5294 36.0872C29.2925 37.4144 28.8397 39.1115 27.5181 39.8778C26.1965 40.644 24.5065 40.1893 23.7435 38.8621L20.3028 32.8772Z" fill="white"/>
<path d="M15.6346 32.8772C16.3976 31.55 15.9448 29.8529 14.6232 29.0866C13.3016 28.3203 11.6116 28.7751 10.8486 30.1023L7.4079 36.0872C6.64487 37.4144 7.09768 39.1115 8.41928 39.8778C9.74088 40.644 11.4308 40.1893 12.1938 38.8621L15.6346 32.8772Z" fill="white"/>
</svg>
