<svg width="41" height="41" viewBox="0 0 41 41" fill="none" xmlns="http://www.w3.org/2000/svg">
<path fill-rule="evenodd" clip-rule="evenodd" d="M4.16803 7.58561C4.16803 5.56796 5.90918 3.93233 8.057 3.93233H32.6872C34.835 3.93233 36.5761 5.56796 36.5761 7.58561V36.8118C36.5761 38.8295 34.835 40.4651 32.6872 40.4651H8.057C5.90918 40.4651 4.16803 38.8295 4.16803 36.8118V7.58561ZM30.0945 19.1543C30.0945 24.1984 25.7416 28.2875 20.3721 28.2875C15.0025 28.2875 10.6496 24.1984 10.6496 19.1543C10.6496 14.1102 15.0025 10.0211 20.3721 10.0211C25.7416 10.0211 30.0945 14.1102 30.0945 19.1543ZM30.7427 36.8118C31.8166 36.8118 32.6872 35.994 32.6872 34.9852C32.6872 33.9764 31.8166 33.1585 30.7427 33.1585C29.6688 33.1585 28.7982 33.9764 28.7982 34.9852C28.7982 35.994 29.6688 36.8118 30.7427 36.8118Z" fill="white"/>
<path d="M4.29766 0.279053C2.0784 0.279053 0.279053 1.93443 0.279053 3.97748V13.8399C0.279053 16.0855 2.95812 14.9848 2.95812 12.7393V6.44309C2.95812 4.40005 4.75747 2.74467 6.97673 2.74467H33.7674C35.9867 2.74467 37.786 4.40005 37.786 6.44309V12.7393C37.786 14.9848 40.4651 16.0855 40.4651 13.8399V3.97748C40.4651 1.93443 38.6658 0.279053 36.4465 0.279053H4.29766Z" fill="white"/>
</svg>
