<svg width="44" height="44" viewBox="0 0 44 44" fill="none" xmlns="http://www.w3.org/2000/svg">
<rect width="44" height="44" rx="3" fill="#377EF6"/>
<path d="M6.50781 27.5H4.49219V16.2266H11.6797V17.9297H6.50781V21.2578H11.2344V22.8984H6.50781V27.5ZM15.1641 17.8594V21.7109H17.4375C18.7188 21.7109 19.4609 21 19.4609 19.7812C19.4609 18.5938 18.6719 17.8594 17.3984 17.8594H15.1641ZM15.1641 23.2578V27.5H13.1484V16.2266H17.625C20.0625 16.2266 21.5234 17.5781 21.5234 19.7344C21.5234 21.2266 20.7422 22.4688 19.3984 22.9531L21.8594 27.5H19.5625L17.3438 23.2578H15.1641ZM30.4453 25.7969V27.5H23.1484V16.2266H30.4453V17.9297H25.1641V20.9766H30.1562V22.5781H25.1641V25.7969H30.4453ZM39.4922 25.7969V27.5H32.1953V16.2266H39.4922V17.9297H34.2109V20.9766H39.2031V22.5781H34.2109V25.7969H39.4922Z" fill="white"/>
</svg>
