<svg width="20" height="20" viewBox="0 0 20 20" fill="none" xmlns="http://www.w3.org/2000/svg">
<path d="M9.04523 20C7.77388 19.878 6.58809 19.5329 5.48787 18.9648C4.38765 18.3967 3.43022 17.6667 2.61559 16.775C1.80096 15.8832 1.16137 14.8554 0.696819 13.6917C0.232273 12.528 0 11.2928 0 9.98624C0 7.34765 0.870744 5.08297 2.61223 3.19219C4.35391 1.30123 6.49824 0.237166 9.04523 0V1.44012C6.90127 1.69844 5.09677 2.63354 3.63174 4.2454C2.16651 5.85727 1.4339 7.77088 1.4339 9.98624C1.4339 12.2016 2.16474 14.1198 3.62642 15.7408C5.08792 17.3619 6.89419 18.3017 9.04523 18.5602V20ZM10.0382 14.9367L5.13583 10.0244L6.14974 9.00632L9.32122 12.1909V5.06977H10.7551V12.1909L13.9372 8.99565L14.9511 10.0034L10.0382 14.9367ZM11.0308 20V18.5602C11.8583 18.4679 12.6351 18.2701 13.3612 17.9669C14.0875 17.6636 14.754 17.2685 15.3608 16.7814L16.3853 17.7889C15.6259 18.3966 14.8 18.8905 13.9076 19.2705C13.0152 19.6503 12.0563 19.8935 11.0308 20ZM15.3608 3.26773C14.754 2.78778 14.0875 2.38626 13.3612 2.06318C12.6351 1.74009 11.8583 1.53241 11.0308 1.44012V0C12.0563 0.0993963 13.018 0.340868 13.916 0.724414C14.8139 1.10777 15.6462 1.60335 16.4127 2.21115L15.3608 3.26773ZM17.7918 16.3765L16.767 15.3584C17.2452 14.7493 17.6405 14.0801 17.9529 13.3508C18.2655 12.6216 18.4678 11.8415 18.5597 11.0108H20C19.9223 12.0403 19.6843 13.0014 19.2861 13.8939C18.8881 14.7864 18.39 15.6139 17.7918 16.3765ZM18.5597 9.01699C18.4678 8.18625 18.2655 7.41092 17.9529 6.691C17.6405 5.97089 17.2452 5.29702 16.767 4.66938L17.8405 3.60213C18.4245 4.37896 18.904 5.21821 19.2789 6.11989C19.6535 7.02176 19.8939 7.98746 20 9.01699H18.5597Z" fill="white"/>
</svg>
