<svg width="20" height="20" viewBox="0 0 20 20" fill="none" xmlns="http://www.w3.org/2000/svg">
<g clip-path="url(#clip0_1883_56865)">
<path d="M18.253 10.0212C18.2627 9.79659 18.359 9.58437 18.5217 9.42885C18.6845 9.27333 18.9011 9.18651 19.1265 9.18651C19.3518 9.18651 19.5685 9.27333 19.7312 9.42885C19.8939 9.58437 19.9902 9.79659 20 10.0212C19.9997 12.0028 19.4081 13.9394 18.3006 15.5842C17.1931 17.229 15.6198 18.5075 13.7813 19.2567C11.9428 20.0059 9.92229 20.1919 7.97744 19.7909C6.03259 19.3899 4.25145 18.4202 2.86107 17.0053V19.0154C2.86107 19.2467 2.76895 19.4686 2.60498 19.6323C2.44102 19.7959 2.21863 19.8878 1.98675 19.8878C1.75487 19.8878 1.53248 19.7959 1.36851 19.6323C1.20455 19.4686 1.11243 19.2467 1.11243 19.0154V14.5362C1.11458 14.3062 1.20765 14.0864 1.37138 13.9246C1.53511 13.7627 1.75627 13.6719 1.98675 13.6719H6.52471C6.6426 13.6669 6.7603 13.6856 6.87072 13.7272C6.98114 13.7687 7.08199 13.832 7.16721 13.9135C7.25243 13.9949 7.32024 14.0927 7.36657 14.201C7.4129 14.3093 7.43679 14.4258 7.43679 14.5435C7.43679 14.6613 7.4129 14.7778 7.36657 14.8861C7.32024 14.9943 7.25243 15.0922 7.16721 15.1736C7.08199 15.255 6.98114 15.3184 6.87072 15.3599C6.7603 15.4014 6.6426 15.4202 6.52471 15.4151H3.75169C4.85288 16.6854 6.31698 17.5894 7.94767 18.0058C9.57837 18.4223 11.2977 18.3313 12.8751 17.7451C14.4525 17.1589 15.8126 16.1055 16.7729 14.7261C17.7333 13.3467 18.248 11.7073 18.2481 10.0277L18.253 10.0212ZM17.3884 0.872471C17.3833 0.754845 17.4022 0.637406 17.4438 0.527229C17.4854 0.417053 17.5489 0.316418 17.6305 0.231388C17.7121 0.146357 17.8101 0.0786895 17.9186 0.0324618C18.0272 -0.013766 18.1439 -0.0375977 18.2619 -0.0375977C18.3799 -0.0375977 18.4967 -0.013766 18.6052 0.0324618C18.7137 0.0786895 18.8118 0.146357 18.8934 0.231388C18.975 0.316418 19.0385 0.417053 19.0801 0.527229C19.1217 0.637406 19.1405 0.754845 19.1354 0.872471V5.39396C19.135 5.62364 19.0438 5.8439 18.8817 6.00692C18.7195 6.16995 18.4995 6.26258 18.2693 6.26472H13.7737C13.6558 6.26981 13.5381 6.25103 13.4277 6.20952C13.3173 6.16801 13.2164 6.10463 13.1312 6.0232C13.046 5.94176 12.9782 5.84396 12.9319 5.73568C12.8855 5.6274 12.8616 5.51088 12.8616 5.39314C12.8616 5.27541 12.8855 5.15889 12.9319 5.05061C12.9782 4.94232 13.046 4.84452 13.1312 4.76309C13.2164 4.68165 13.3173 4.61827 13.4277 4.57676C13.5381 4.53525 13.6558 4.51648 13.7737 4.52156H16.1487C15.0335 3.27927 13.5665 2.40412 11.9419 2.01188C10.3173 1.61964 8.61165 1.72881 7.05059 2.32494C5.48953 2.92107 4.14664 3.97607 3.1996 5.35035C2.25257 6.72463 1.74601 8.35342 1.74696 10.0212C1.75206 10.1389 1.73324 10.2563 1.69164 10.3665C1.65004 10.4767 1.58652 10.5773 1.50491 10.6623C1.42329 10.7473 1.32527 10.815 1.21675 10.8612C1.10823 10.9075 0.991458 10.9313 0.873463 10.9313C0.755467 10.9313 0.638692 10.9075 0.530172 10.8612C0.421653 10.815 0.323634 10.7473 0.242019 10.6623C0.160405 10.5773 0.0968851 10.4767 0.0552849 10.3665C0.0136848 10.2563 -0.0051343 10.1389 -3.88564e-05 10.0212C0.000891887 8.28422 0.456218 6.57754 1.32091 5.06996C2.1856 3.56238 3.42971 2.30613 4.9302 1.42544C6.43069 0.544748 8.13559 0.0701232 9.87629 0.0485014C11.617 0.0268795 13.3332 0.45901 14.8552 1.30216C15.8016 1.8278 16.657 2.50213 17.3884 3.29923V0.872471Z" fill="#2DE60B"/>
</g>
<defs>
<clipPath id="clip0_1883_56865">
<rect width="20" height="20" fill="white"/>
</clipPath>
</defs>
</svg>
