<svg width="38" height="38" viewBox="0 0 38 38" fill="none" xmlns="http://www.w3.org/2000/svg">
<rect width="38" height="38" rx="2.45455" fill="url(#paint0_linear_1986_28407)"/>
<path d="M4.91326 13.6233H8.94744C11.0113 13.6233 12.4423 15.0256 12.4423 17.0966C12.4423 19.1676 10.9681 20.5699 8.86834 20.5699H6.76855V24H4.91326V13.6233ZM6.76855 15.1406V19.0741H8.45126C9.78161 19.0741 10.5582 18.355 10.5582 17.0966C10.5582 15.8525 9.7888 15.1406 8.45845 15.1406H6.76855ZM15.6567 15.1262V18.6714H17.7493C18.9286 18.6714 19.6118 18.017 19.6118 16.8952C19.6118 15.8022 18.8855 15.1262 17.7133 15.1262H15.6567ZM15.6567 20.0953V24H13.8014V13.6233H17.9219C20.1655 13.6233 21.5102 14.8674 21.5102 16.8521C21.5102 18.2256 20.7911 19.369 19.5542 19.8148L21.8194 24H19.7053L17.663 20.0953H15.6567ZM27.5795 13.4507C30.5997 13.4507 32.4981 15.5146 32.4981 18.8153C32.4981 22.1159 30.5997 24.1726 27.5795 24.1726C24.552 24.1726 22.6536 22.1159 22.6536 18.8153C22.6536 15.5146 24.552 13.4507 27.5795 13.4507ZM27.5795 15.0328C25.7242 15.0328 24.552 16.4997 24.552 18.8153C24.552 21.1236 25.7242 22.5906 27.5795 22.5906C29.4276 22.5906 30.6069 21.1236 30.6069 18.8153C30.6069 16.4997 29.4276 15.0328 27.5795 15.0328Z" fill="white"/>
<defs>
<linearGradient id="paint0_linear_1986_28407" x1="38" y1="38" x2="38" y2="0" gradientUnits="userSpaceOnUse">
<stop stop-color="#EACDA3"/>
<stop offset="1" stop-color="#E6B980"/>
</linearGradient>
</defs>
</svg>
