<svg width="29" height="28" viewBox="0 0 29 28" fill="none" xmlns="http://www.w3.org/2000/svg">
<path d="M13.0322 19.0332C14.4297 19.0332 15.7393 18.6113 16.8291 17.8906L20.6787 21.749C20.9336 21.9951 21.2588 22.1182 21.6104 22.1182C22.3398 22.1182 22.876 21.5469 22.876 20.8262C22.876 20.4922 22.7617 20.167 22.5156 19.9209L18.6924 16.0801C19.4834 14.9551 19.9492 13.5928 19.9492 12.1162C19.9492 8.31055 16.8379 5.19922 13.0322 5.19922C9.23535 5.19922 6.11523 8.31055 6.11523 12.1162C6.11523 15.9219 9.22656 19.0332 13.0322 19.0332ZM13.0322 17.1875C10.2461 17.1875 7.96094 14.9023 7.96094 12.1162C7.96094 9.33008 10.2461 7.04492 13.0322 7.04492C15.8184 7.04492 18.1035 9.33008 18.1035 12.1162C18.1035 14.9023 15.8184 17.1875 13.0322 17.1875Z" fill="#3C3C43" fill-opacity="0.6"/>
</svg>
