<svg width="26" height="27" viewBox="0 0 26 27" fill="none" xmlns="http://www.w3.org/2000/svg">
<path d="M15.8889 26.0208V22.975C18.0556 22.3312 19.8009 21.0931 21.125 19.2608C22.4491 17.4284 23.1111 15.3484 23.1111 13.0208C23.1111 10.6931 22.4491 8.61313 21.125 6.78075C19.8009 4.94837 18.0556 3.71028 15.8889 3.06647V0.020752C18.8741 0.714085 21.3056 2.2679 23.1833 4.68218C25.0611 7.09647 26 9.87599 26 13.0208C26 16.1655 25.0611 18.945 23.1833 21.3593C21.3056 23.7736 18.8741 25.3274 15.8889 26.0208ZM0 17.515L0 8.60075H5.77778L13 1.17218V24.9436L5.77778 17.515H0ZM15.8889 19.0008V7.04075C17.0204 7.58551 17.9051 8.40266 18.5431 9.49218C19.181 10.5817 19.5 11.7703 19.5 13.0579C19.5 14.3208 19.181 15.4908 18.5431 16.5679C17.9051 17.645 17.0204 18.456 15.8889 19.0008ZM10.1111 8.37789L7.00556 11.5722H2.88889V14.5436H7.00556L10.1111 17.7379V8.37789Z" fill="white"/>
</svg>
